<?xml version="1.0" encoding="UTF-8" standalone="no"?>
<svg width="32px" height="32px" viewBox="0 0 32 32" version="1.1" xmlns="http://www.w3.org/2000/svg" xmlns:xlink="http://www.w3.org/1999/xlink" xmlns:sketch="http://www.bohemiancoding.com/sketch/ns">
    <!-- Generator: Sketch 3.4.2 (15857) - http://www.bohemiancoding.com/sketch -->
    <title>Twitter</title>
    <desc>Created with Sketch.</desc>
    <defs></defs>
    <g id="Page-1" stroke="none" stroke-width="1" fill="none" fill-rule="evenodd" sketch:type="MSPage">
        <g id="Twitter" sketch:type="MSLayerGroup" transform="translate(1.000000, 1.000000)">
            <path d="M15,30 C23.2842717,30 30,23.2842717 30,15 C30,6.71572834 23.2842717,0 15,0 C6.71572834,0 0,6.71572834 0,15 C0,23.2842717 6.71572834,30 15,30 Z" id="Twitter-BG" stroke="#FFFFFF" sketch:type="MSShapeGroup"></path>
            <path d="M10.7372889,10.7766232 C10.6199868,10.8939253 10.6199868,11.0840909 10.7372889,11.201393 L18.7995078,19.2624108 C18.858359,19.321262 18.935226,19.3504875 19.0116925,19.3504875 C19.0885595,19.3504875 19.1654264,19.321262 19.2242776,19.2624108 C19.3415797,19.1451087 19.3415797,18.9553435 19.2242776,18.8380414 L11.1620587,10.7766232 C11.0447566,10.6593211 10.8545911,10.6593211 10.7372889,10.7766232 L10.7372889,10.7766232 Z M13.3863952,14.755287 C12.6937922,15.4474896 11.5668111,15.4478899 10.8738078,14.755287 L7.61817347,11.4988519 C7.28428279,11.1645609 7.10052281,10.7185726 7.10052281,10.2425582 C7.10052281,9.76694416 7.28428279,9.32095589 7.61857382,8.98706521 L8.94652992,7.65790806 C9.63913289,6.96570544 10.766114,6.96570544 11.458717,7.65750771 L14.7147517,10.9151438 C15.4073546,11.6065457 15.4073546,12.7335268 14.7147517,13.4269305 L14.6883287,13.4537539 L14.9005134,13.6659386 L15.1395215,13.8513 C16.065928,12.923292 16.065928,11.4159798 15.1395215,10.4899736 L11.8834868,7.23313826 C10.9570803,6.30673174 9.44936768,6.30673174 8.52176012,7.23313826 L7.19380402,8.56269576 C6.74621435,9.00948473 6.5,9.60600405 6.5,10.2425582 C6.5,10.8791124 6.74621435,11.4756317 7.19380402,11.9232214 L10.449038,15.1800568 C10.9094388,15.6400572 11.5123637,15.8714587 12.1200928,15.8714587 C12.7370299,15.8714587 13.3583708,15.632851 13.8391894,15.1520324 C13.9564915,15.0347302 13.942079,14.8581765 13.8251772,14.7408744 C13.7074747,14.624373 13.5040977,14.6383852 13.3863952,14.755287 L13.3863952,14.755287 Z M22.806196,18.0785802 L19.5493606,14.8213445 C18.6229541,13.8957386 17.1152415,13.8957386 16.1884346,14.8213445 L16.1223771,14.887402 C16.005075,15.0047041 16.005075,15.1944693 16.1223771,15.3117714 C16.2396793,15.4290735 16.4294445,15.4290735 16.5467466,15.3117714 L16.6128041,15.2461143 C17.3054071,14.554312 18.4327885,14.554312 19.1249912,15.2457139 L22.3814262,18.50335 C22.7153169,18.8368403 22.8994772,19.2828286 22.8994772,19.758843 C22.8994772,20.2348574 22.7153169,20.6808457 22.3814262,21.0147364 L21.0526694,22.3430928 C20.7187787,22.6773838 20.2727904,22.8611438 19.7963757,22.8611438 C19.3203613,22.8611438 18.874373,22.6773838 18.5404823,22.3430928 L15.2840473,19.0870581 C14.5974495,18.4004604 14.5938464,17.2782834 15.2760403,16.5856805 C15.3925417,16.4675777 15.3909403,16.2774121 15.2732379,16.1609107 C15.1547347,16.0444093 14.9645692,16.0460106 14.8484681,16.1641135 C13.9356734,17.0913207 13.9404776,18.593028 14.8592775,19.5118279 L18.1157125,22.7674623 C18.5629018,23.2150519 19.1602218,23.4616666 19.7963757,23.4616666 C20.4333302,23.4616666 21.0302499,23.2150519 21.4774392,22.7674623 L22.806196,21.4395062 C23.2537856,20.9923168 23.5,20.3949968 23.5,19.758843 C23.5,19.1222888 23.2537856,18.5257695 22.806196,18.0785802 L22.806196,18.0785802 Z" id="Fill-182" fill="#FFFFFF" sketch:type="MSShapeGroup"></path>
        </g>
    </g>
</svg>