<?xml version="1.0" encoding="UTF-8" standalone="no"?>
<svg width="32px" height="32px" viewBox="0 0 32 32" version="1.1" xmlns="http://www.w3.org/2000/svg" xmlns:xlink="http://www.w3.org/1999/xlink" xmlns:sketch="http://www.bohemiancoding.com/sketch/ns">
    <!-- Generator: Sketch 3.4.2 (15857) - http://www.bohemiancoding.com/sketch -->
    <title>Twitter</title>
    <desc>Created with Sketch.</desc>
    <defs></defs>
    <g id="Page-1" stroke="none" stroke-width="1" fill="none" fill-rule="evenodd" sketch:type="MSPage">
        <g id="Twitter" sketch:type="MSLayerGroup" transform="translate(1.000000, 1.000000)">
            <path d="M15,30 C23.2842717,30 30,23.2842717 30,15 C30,6.71572834 23.2842717,0 15,0 C6.71572834,0 0,6.71572834 0,15 C0,23.2842717 6.71572834,30 15,30 Z" id="Twitter-BG" stroke="#FFFFFF" sketch:type="MSShapeGroup"></path>
            <path d="M12.7061341,21.6 C10.8987161,21.6 9.2163766,21.0483612 7.8,20.1028815 C8.05038516,20.1336568 8.30516405,20.1494009 8.56348074,20.1494009 C10.0629387,20.1494009 11.4429672,19.6166551 12.5383167,18.7229231 C11.1378031,18.6960095 9.95583452,17.7325874 9.54858773,16.4086543 C9.74396576,16.4475691 9.94447932,16.4684226 10.150699,16.4684226 C10.4426248,16.4684226 10.7253638,16.4277255 10.9939515,16.3515596 C9.52975749,16.0454698 8.42659058,14.6986038 8.42659058,13.0840281 C8.42659058,13.0700069 8.42659058,13.0560452 8.42681883,13.0421428 C8.85837375,13.2917319 9.35184023,13.4416279 9.87651926,13.4589167 C9.01774608,12.8613526 8.45266762,11.8413704 8.45266762,10.6852758 C8.45266762,10.0745816 8.61049929,9.50214873 8.88599144,9.00998119 C10.4645364,11.026062 12.8228245,12.352728 15.482796,12.4916922 C15.4282454,12.2478067 15.3998859,11.9934647 15.3998859,11.7322903 C15.3998859,9.89200911 16.8329244,8.4 18.6005136,8.4 C19.5210271,8.4 20.3528103,8.80471334 20.9366619,9.45236162 C21.6656776,9.30288147 22.3506419,9.02554708 22.9690157,8.6437073 C22.7300428,9.42182394 22.2225963,10.0748787 21.5617689,10.4873156 C22.2091869,10.4067531 22.82602,10.2276265 23.4,9.96259036 C22.9708987,10.6308545 22.4282454,11.2177839 21.8029672,11.6876126 C21.8091298,11.8304981 21.8122111,11.9742153 21.8122111,12.1187048 C21.8122111,16.5222497 18.5930385,21.6 12.7061341,21.6" id="Twitter-Logo" fill="#FFFFFF" sketch:type="MSShapeGroup"></path>
        </g>
    </g>
</svg>